<svg xmlns="http://www.w3.org/2000/svg" xmlns:xlink="http://www.w3.org/1999/xlink" width="500" zoomAndPan="magnify" viewBox="0 0 375 374.999991" height="500" preserveAspectRatio="xMidYMid meet" version="1.0"><defs><g/></defs><rect x="-37.5" width="450" fill="#ffffff" y="-37.499999" height="449.999989" fill-opacity="1"/><rect x="-37.5" width="450" fill="#ffffff" y="-37.499999" height="449.999989" fill-opacity="1"/><rect x="-37.5" width="450" fill="#000000" y="-37.499999" height="449.999989" fill-opacity="1"/><g fill="#ffffff" fill-opacity="1"><g transform="translate(161.936142, 322.510885)"><g><path d="M 205.617188 0 L 205.617188 -5.6875 L 187.46875 -5.6875 L 187.46875 -98.609375 C 187.46875 -122.179688 180.964844 -140.871094 167.960938 -155.5 C 154.957031 -170.128906 134.640625 -180.152344 113.511719 -180.152344 C 94.277344 -180.152344 76.9375 -169.316406 68.539062 -154.957031 L 68.539062 -249.234375 L 17.609375 -249.234375 L 17.609375 -243.546875 L 36.300781 -243.546875 L 36.300781 -5.6875 L 17.609375 -5.6875 L 17.609375 0 L 86.691406 0 L 86.691406 -5.6875 L 68.539062 -5.6875 L 68.539062 -142.769531 C 76.667969 -162.816406 94.546875 -174.464844 112.15625 -174.464844 C 127.597656 -174.464844 138.433594 -166.066406 144.121094 -158.480469 C 154.957031 -143.851562 155.230469 -128.140625 155.230469 -107.820312 L 155.230469 0 Z M 205.617188 0 "/></g></g></g><g fill="#ffffff" fill-opacity="1"><g transform="translate(-4.553304, 251.069512)"><g><path d="M 14.898438 -177.714844 L 14.898438 -172.027344 L 33.050781 -172.027344 L 33.050781 -79.105469 C 33.050781 -55.535156 39.550781 -36.84375 52.554688 -22.214844 C 65.558594 -7.585938 85.878906 2.4375 107.007812 2.4375 C 126.242188 2.4375 143.582031 -8.398438 151.980469 -22.757812 L 151.980469 71.519531 L 202.910156 71.519531 L 202.910156 65.832031 L 184.21875 65.832031 L 184.21875 -177.714844 L 133.828125 -177.714844 L 133.828125 -172.027344 L 151.980469 -172.027344 L 151.980469 -34.945312 C 143.851562 -14.898438 125.972656 -3.25 108.363281 -3.25 C 92.921875 -3.25 82.085938 -11.648438 76.394531 -19.234375 C 65.558594 -33.863281 65.289062 -49.574219 65.289062 -69.894531 L 65.289062 -177.714844 Z M 14.898438 -177.714844 "/></g></g></g></svg>